<svg xmlns="http://www.w3.org/2000/svg" height="24" viewBox="0 -960 960 960" width="24"><path d="M294.732-148.078q-28.257 0-48.263-20.006-20.006-20.006-20.006-48.263v-501.23h-11.116q-11.654 0-19.865-8.211-8.211-8.212-8.211-19.769 0-11.557 8.211-19.769 8.211-8.211 19.865-8.211h146.268v-.5q0-13.577 9.846-23.423 9.846-9.846 23.616-9.846h170.846q13.577 0 23.423 9.846 9.846 9.846 9.846 23.423v.5h146.543q11.379 0 19.591 8.226 8.211 8.225 8.211 19.658 0 11.653-8.226 19.865-8.225 8.211-19.658 8.211h-11.308v501.23q0 28.257-20.006 48.263-20.006 20.006-48.263 20.006H294.732Zm383.653-569.499H282.423v501.23q0 5.385 3.462 8.847 3.462 3.462 8.847 3.462h371.344q5.385 0 8.847-3.462 3.462-3.462 3.462-8.847v-501.23ZM380.193-282.923h55.961v-355.962h-55.961v355.962Zm144.461 0h55.96v-355.962h-55.96v355.962ZM282.423-717.577v513.539-513.539Z"/></svg>